<svg xmlns="http://www.w3.org/2000/svg" width="1200" height="720" viewBox="0 0 1200 720" role="img" aria-label="Pneumatic Injection Trials">
  <defs>
    <linearGradient id="bg" x1="0" y1="0" x2="1" y2="1">
      <stop offset="0" stop-color="#1f0f16"/>
      <stop offset="0.58" stop-color="#be123c"/>
      <stop offset="1" stop-color="#fb7185"/>
    </linearGradient>
    <pattern id="grid" width="58" height="58" patternUnits="userSpaceOnUse">
      <path d="M58 0H0V58" fill="none" stroke="rgba(255,255,255,.11)" stroke-width="1"/>
    </pattern>
    <filter id="softShadow" x="-20%" y="-20%" width="140%" height="140%">
      <feDropShadow dx="0" dy="24" stdDeviation="18" flood-color="#000" flood-opacity=".3"/>
    </filter>
  </defs>
  <rect width="1200" height="720" fill="url(#bg)"/>
  <rect width="1200" height="720" fill="url(#grid)" opacity=".64"/>
  <path d="M-80 610C128 482 296 672 510 544c150-90 197-282 396-292 138-7 222 74 374 10v520H-80Z" fill="rgba(255,255,255,.11)"/>
  <path d="M680 118h410c35 0 64 29 64 64v358c0 35-29 64-64 64H680c-35 0-64-29-64-64V182c0-35 29-64 64-64Z" fill="rgba(255,255,255,.12)" stroke="rgba(255,255,255,.28)" stroke-width="2" filter="url(#softShadow)"/>
  <path d='M686 220h330v86H686z' rx='18' fill='rgba(255,255,255,.13)' stroke='#fb7185' stroke-width='5'/><path d='M686 414h330v86H686z' rx='18' fill='rgba(255,255,255,.13)' stroke='#fb7185' stroke-width='5'/><path d='M852 306v108M774 306c0 60 156 60 156 0' fill='none' stroke='#fb7185' stroke-width='14' stroke-linecap='round'/><path d='M780 500v44m144-44v44' stroke='rgba(255,255,255,.5)' stroke-width='10' stroke-linecap='round'/>
  <g transform="translate(84 108)">
    <text x="0" y="0" font-family="Segoe UI, Arial, sans-serif" font-size="24" font-weight="700" fill="rgba(255,255,255,.78)" letter-spacing="3">MALIEV PRACTICAL NOTE</text>
    <rect x="0" y="34" width="124" height="8" rx="4" fill="#fb7185"/>
    <text x="0" y="122" font-family="Segoe UI, Arial, sans-serif" font-size="58" font-weight="800" fill="#fff"><tspan x='0' dy='0'>Pneumatic Injection</tspan><tspan x='0' dy='1.05em'>Trials</tspan></text>
    <text x="0" y="284" font-family="Segoe UI, Arial, sans-serif" font-size="28" font-weight="600" fill="rgba(255,255,255,.86)">Tooling path</text>
    <g transform="translate(0 352) rotate(-13)">
      <rect x="0" y="0" width="360" height="78" rx="39" fill="rgba(255,255,255,.16)" stroke="rgba(255,255,255,.35)"/>
      <text x="34" y="49" font-family="Segoe UI, Arial, sans-serif" font-size="26" font-weight="700" fill="#fff">DFM • files • production</text>
    </g>
  </g>
</svg>
