<svg xmlns="http://www.w3.org/2000/svg" width="1200" height="720" viewBox="0 0 1200 720" role="img" aria-label="Scan Datum Strategy">
  <defs>
    <linearGradient id="bg" x1="0" y1="0" x2="1" y2="1">
      <stop offset="0" stop-color="#111827"/>
      <stop offset="0.58" stop-color="#2563eb"/>
      <stop offset="1" stop-color="#38bdf8"/>
    </linearGradient>
    <pattern id="grid" width="58" height="58" patternUnits="userSpaceOnUse">
      <path d="M58 0H0V58" fill="none" stroke="rgba(255,255,255,.11)" stroke-width="1"/>
    </pattern>
    <filter id="softShadow" x="-20%" y="-20%" width="140%" height="140%">
      <feDropShadow dx="0" dy="24" stdDeviation="18" flood-color="#000" flood-opacity=".3"/>
    </filter>
  </defs>
  <rect width="1200" height="720" fill="url(#bg)"/>
  <rect width="1200" height="720" fill="url(#grid)" opacity=".64"/>
  <path d="M-80 610C128 482 296 672 510 544c150-90 197-282 396-292 138-7 222 74 374 10v520H-80Z" fill="rgba(255,255,255,.11)"/>
  <path d="M680 118h410c35 0 64 29 64 64v358c0 35-29 64-64 64H680c-35 0-64-29-64-64V182c0-35 29-64 64-64Z" fill="rgba(255,255,255,.12)" stroke="rgba(255,255,255,.28)" stroke-width="2" filter="url(#softShadow)"/>
  <path d='M782 210l232 76-232 76-132-43 132-109Z' fill='rgba(255,255,255,.12)' stroke='#38bdf8' stroke-width='5'/><path d='M1014 286v150l-232 86-232-86V286' fill='none' stroke='rgba(255,255,255,.36)' stroke-width='6'/><path d='M616 175l-100 64m100-16-88 106m98-56-72 138' stroke='#38bdf8' stroke-width='8' stroke-linecap='round'/><circle cx='512' cy='244' r='16' fill='#38bdf8'/><circle cx='526' cy='334' r='12' fill='#38bdf8'/>
  <g transform="translate(84 108)">
    <text x="0" y="0" font-family="Segoe UI, Arial, sans-serif" font-size="24" font-weight="700" fill="rgba(255,255,255,.78)" letter-spacing="3">MALIEV PRACTICAL NOTE</text>
    <rect x="0" y="34" width="124" height="8" rx="4" fill="#38bdf8"/>
    <text x="0" y="122" font-family="Segoe UI, Arial, sans-serif" font-size="58" font-weight="800" fill="#fff"><tspan x='0' dy='0'>Scan Datum Strategy</tspan></text>
    <text x="0" y="230" font-family="Segoe UI, Arial, sans-serif" font-size="28" font-weight="600" fill="rgba(255,255,255,.86)">Scan evidence</text>
    <g transform="translate(0 298) rotate(-15)">
      <rect x="0" y="0" width="360" height="78" rx="39" fill="rgba(255,255,255,.16)" stroke="rgba(255,255,255,.35)"/>
      <text x="34" y="49" font-family="Segoe UI, Arial, sans-serif" font-size="26" font-weight="700" fill="#fff">DFM • files • production</text>
    </g>
  </g>
</svg>
